<svg xmlns="http://www.w3.org/2000/svg" xmlns:xlink="http://www.w3.org/1999/xlink" version="1.1" data-diagram-type="ACTIVITY" style="width:2515px;height:693px;background:#FFFFFF;" width="2515px" height="693px" viewBox="0 0 2515 693" zoomAndPan="magnify" preserveAspectRatio="none" contentStyleType="text/css"><?plantuml 1.2026.7beta11?><defs/><g font-family="sans-serif" lengthAdjust="spacing"><g class="title" data-source-line="2"><text x="986.592" y="35.421" fill="#000" font-size="22" textLength="539.902" font-weight="700" font-family="Verdana">Luồng chỉnh sửa thực đơn trên ShopeeFood</text></g><rect x="15" y="59.354" width="2478.085" height="20.953" fill="#FFF" style="stroke:#FFF;stroke-width:1;"/><ellipse cx="772.985" cy="95.308" rx="10" ry="10" fill="#FFF" style="stroke:#000;stroke-width:1;"/><rect x="685.516" y="125.308" width="174.939" height="33.969" fill="#FFF" style="stroke:#000;stroke-width:1;" rx="12.5" ry="12.5"/><text x="695.516" y="146.446" fill="#000" font-size="12" textLength="154.939" font-family="Verdana">Mở màn Quản lý thực đơn</text><polygon points="157.233,179.276,240.275,179.276,252.275,191.276,240.275,203.276,157.233,203.276,145.233,191.276,157.233,179.276" fill="#FFF" style="stroke:#000;stroke-width:1;stroke-linejoin:miter;stroke-miterlimit:10;"/><text x="202.754" y="213.487" fill="#000" font-size="11" textLength="59.087" font-family="Verdana">Thêm món</text><text x="157.233" y="195.084" fill="#000" font-size="11" textLength="83.042" font-family="Verdana">Chọn thao tác?</text><rect x="21" y="236.081" width="355.508" height="33.969" fill="#FFF" style="stroke:#000;stroke-width:1;" rx="12.5" ry="12.5"/><text x="31" y="257.22" fill="#000" font-size="12" textLength="335.508" font-family="Verdana">Chọn món từ thực đơn CukCuk để bán trên ShopeeFood</text><polygon points="561.207,179.276,609.815,179.276,621.815,191.276,609.815,203.276,561.207,203.276,549.207,191.276,561.207,179.276" fill="#FFF" style="stroke:#000;stroke-width:1;stroke-linejoin:miter;stroke-miterlimit:10;"/><text x="589.511" y="213.487" fill="#000" font-size="11" textLength="48.608" font-family="Verdana">Sửa món</text><text x="561.207" y="195.084" fill="#000" font-size="11" textLength="48.608" font-family="Verdana">Sửa món</text><rect x="386.508" y="236.081" width="398.006" height="33.969" fill="#FFF" style="stroke:#000;stroke-width:1;" rx="12.5" ry="12.5"/><text x="396.508" y="257.22" fill="#000" font-size="12" textLength="378.006" font-family="Verdana">Sửa tên hiển thị / giá ShopeeFood / mô tả / trạng thái hết hàng</text><polygon points="918.389,179.276,967.309,179.276,979.309,191.276,967.309,203.276,918.389,203.276,906.389,191.276,918.389,179.276" fill="#FFF" style="stroke:#000;stroke-width:1;stroke-linejoin:miter;stroke-miterlimit:10;"/><text x="946.849" y="213.487" fill="#000" font-size="11" textLength="48.92" font-family="Verdana">Xóa món</text><text x="918.389" y="195.084" fill="#000" font-size="11" textLength="48.92" font-family="Verdana">Xóa món</text><rect x="804.514" y="236.081" width="276.67" height="33.969" fill="#FFF" style="stroke:#000;stroke-width:1;" rx="12.5" ry="12.5"/><text x="814.514" y="257.22" fill="#000" font-size="12" textLength="256.67" font-family="Verdana">Chọn xóa món khỏi ShopeeFood, xác nhận</text><polygon points="1157.633,179.276,1253.727,179.276,1265.727,191.276,1253.727,203.276,1157.633,203.276,1145.633,191.276,1157.633,179.276" fill="#FFF" style="stroke:#000;stroke-width:1;stroke-linejoin:miter;stroke-miterlimit:10;"/><text x="1209.68" y="213.487" fill="#000" font-size="11" textLength="96.094" font-family="Verdana">Sắp xếp và nhóm</text><text x="1157.633" y="195.084" fill="#000" font-size="11" textLength="96.094" font-family="Verdana">Sắp xếp và nhóm</text><text x="1265.727" y="188.682" fill="#000" font-size="11" textLength="100.106" font-family="Verdana">Đổi trạng thái bán</text><rect x="1091.184" y="236.081" width="228.992" height="33.969" fill="#FFF" style="stroke:#000;stroke-width:1;" rx="12.5" ry="12.5"/><text x="1101.184" y="257.22" fill="#000" font-size="12" textLength="208.992" font-family="Verdana">Sửa nhóm món, sắp thứ tự hiển thị</text><rect x="1340.176" y="232.679" width="184.795" height="33.969" fill="#FFF" style="stroke:#000;stroke-width:1;" rx="12.5" ry="12.5"/><text x="1350.176" y="253.817" fill="#000" font-size="12" textLength="164.795" font-family="Verdana">Bật/tắt Có bán - Ngừng bán</text><rect x="681.452" y="440.019" width="183.066" height="33.969" fill="#FFF" style="stroke:#000;stroke-width:1;" rx="12.5" ry="12.5"/><text x="691.452" y="461.157" fill="#000" font-size="12" textLength="163.066" font-family="Verdana">Bấm Đăng lên ShopeeFood</text><line x1="15" y1="59.354" x2="15" y2="677.894" style="stroke:#000;stroke-width:1;"/><polygon points="1851.067,310.05,2174.541,310.05,2186.541,322.05,2174.541,334.05,1851.067,334.05,1839.067,322.05,1851.067,310.05" fill="#FFF" style="stroke:#000;stroke-width:1;stroke-linejoin:miter;stroke-miterlimit:10;"/><text x="1851.067" y="325.858" fill="#000" font-size="11" textLength="323.474" font-family="Verdana">Món đang chạy khuyến mãi ShopeeFood, bị khóa sửa/xóa?</text><text x="1824.656" y="319.456" fill="#000" font-size="11" textLength="14.411" font-family="Verdana">Có</text><text x="2186.541" y="319.456" fill="#000" font-size="11" textLength="34.869" font-family="Verdana">Không</text><rect x="1534.971" y="344.05" width="571.971" height="33.969" fill="#FFF" style="stroke:#000;stroke-width:1;" rx="12.5" ry="12.5"/><text x="1544.971" y="365.188" fill="#000" font-size="12" textLength="551.971" font-family="Verdana">Báo món khuyến mãi ShopeeFood [CheapMeal / Trùm Deal] không cho sửa/xóa, giữ nguyên</text><ellipse cx="1820.956" cy="409.019" rx="11" ry="11" fill="none" style="stroke:#000;stroke-width:1;"/><ellipse cx="1820.956" cy="409.019" rx="6" ry="6" fill="#FFF" style="stroke:#000;stroke-width:1;"/><rect x="2126.941" y="344.05" width="155.422" height="33.969" fill="#FFF" style="stroke:#000;stroke-width:1;" rx="12.5" ry="12.5"/><text x="2136.941" y="365.188" fill="#000" font-size="12" textLength="135.422" font-family="Verdana">Lưu thay đổi ở CukCuk</text><rect x="1831.807" y="493.987" width="361.994" height="33.969" fill="#FFF" style="stroke:#000;stroke-width:1;" rx="12.5" ry="12.5"/><text x="1841.807" y="515.126" fill="#000" font-size="12" textLength="341.994" font-family="Verdana">Đồng bộ một hoặc nhiều món thay đổi sang ShopeeFood</text><rect x="1887.603" y="601.925" width="250.402" height="33.969" fill="#FFF" style="stroke:#000;stroke-width:1;" rx="12.5" ry="12.5"/><text x="1897.603" y="623.063" fill="#000" font-size="12" textLength="230.402" font-family="Verdana">Hiện kết quả cập nhật thành công / lỗi</text><ellipse cx="2012.804" cy="666.894" rx="11" ry="11" fill="none" style="stroke:#000;stroke-width:1;"/><ellipse cx="2012.804" cy="666.894" rx="6" ry="6" fill="#FFF" style="stroke:#000;stroke-width:1;"/><line x1="1528.971" y1="59.354" x2="1528.971" y2="677.894" style="stroke:#000;stroke-width:1;"/><rect x="2292.363" y="547.956" width="194.861" height="33.969" fill="#FFF" style="stroke:#000;stroke-width:1;" rx="12.5" ry="12.5"/><text x="2302.363" y="569.095" fill="#000" font-size="12" textLength="174.861" font-family="Verdana">Xử lý cập nhật và trả kết quả</text><line x1="2286.363" y1="59.354" x2="2286.363" y2="677.894" style="stroke:#000;stroke-width:1;"/><line x1="2491.225" y1="59.354" x2="2491.225" y2="677.894" style="stroke:#000;stroke-width:1;"/><line x1="772.985" y1="105.308" x2="772.985" y2="125.308" style="stroke:#000;stroke-width:1;"/><polygon points="768.985,115.308,772.985,125.308,776.985,115.308,772.985,119.308" fill="#000" style="stroke:#000;stroke-width:1;stroke-linejoin:miter;stroke-miterlimit:10;"/><line x1="198.754" y1="203.276" x2="198.754" y2="236.081" style="stroke:#000;stroke-width:1;"/><polygon points="194.754,226.081,198.754,236.081,202.754,226.081,198.754,230.081" fill="#000" style="stroke:#000;stroke-width:1;stroke-linejoin:miter;stroke-miterlimit:10;"/><line x1="198.754" y1="270.05" x2="198.754" y2="290.05" style="stroke:#000;stroke-width:1;"/><polygon points="194.754,280.05,198.754,290.05,202.754,280.05,198.754,284.05" fill="#000" style="stroke:#000;stroke-width:1;stroke-linejoin:miter;stroke-miterlimit:10;"/><line x1="585.511" y1="203.276" x2="585.511" y2="236.081" style="stroke:#000;stroke-width:1;"/><polygon points="581.511,226.081,585.511,236.081,589.511,226.081,585.511,230.081" fill="#000" style="stroke:#000;stroke-width:1;stroke-linejoin:miter;stroke-miterlimit:10;"/><line x1="585.511" y1="270.05" x2="585.511" y2="290.05" style="stroke:#000;stroke-width:1;"/><polygon points="581.511,280.05,585.511,290.05,589.511,280.05,585.511,284.05" fill="#000" style="stroke:#000;stroke-width:1;stroke-linejoin:miter;stroke-miterlimit:10;"/><line x1="942.849" y1="203.276" x2="942.849" y2="236.081" style="stroke:#000;stroke-width:1;"/><polygon points="938.849,226.081,942.849,236.081,946.849,226.081,942.849,230.081" fill="#000" style="stroke:#000;stroke-width:1;stroke-linejoin:miter;stroke-miterlimit:10;"/><line x1="942.849" y1="270.05" x2="942.849" y2="290.05" style="stroke:#000;stroke-width:1;"/><polygon points="938.849,280.05,942.849,290.05,946.849,280.05,942.849,284.05" fill="#000" style="stroke:#000;stroke-width:1;stroke-linejoin:miter;stroke-miterlimit:10;"/><line x1="1205.68" y1="203.276" x2="1205.68" y2="236.081" style="stroke:#000;stroke-width:1;"/><polygon points="1201.68,226.081,1205.68,236.081,1209.68,226.081,1205.68,230.081" fill="#000" style="stroke:#000;stroke-width:1;stroke-linejoin:miter;stroke-miterlimit:10;"/><line x1="1205.68" y1="270.05" x2="1205.68" y2="290.05" style="stroke:#000;stroke-width:1;"/><polygon points="1201.68,280.05,1205.68,290.05,1209.68,280.05,1205.68,284.05" fill="#000" style="stroke:#000;stroke-width:1;stroke-linejoin:miter;stroke-miterlimit:10;"/><line x1="252.275" y1="191.276" x2="549.207" y2="191.276" style="stroke:#000;stroke-width:1;"/><polygon points="539.207,187.276,549.207,191.276,539.207,195.276,543.207,191.276" fill="#000" style="stroke:#000;stroke-width:1;stroke-linejoin:miter;stroke-miterlimit:10;"/><line x1="621.815" y1="191.276" x2="906.389" y2="191.276" style="stroke:#000;stroke-width:1;"/><polygon points="896.389,187.276,906.389,191.276,896.389,195.276,900.389,191.276" fill="#000" style="stroke:#000;stroke-width:1;stroke-linejoin:miter;stroke-miterlimit:10;"/><line x1="979.309" y1="191.276" x2="1145.633" y2="191.276" style="stroke:#000;stroke-width:1;"/><polygon points="1135.633,187.276,1145.633,191.276,1135.633,195.276,1139.633,191.276" fill="#000" style="stroke:#000;stroke-width:1;stroke-linejoin:miter;stroke-miterlimit:10;"/><line x1="772.985" y1="159.276" x2="772.985" y2="164.276" style="stroke:#000;stroke-width:1;"/><line x1="772.985" y1="164.276" x2="198.754" y2="164.276" style="stroke:#000;stroke-width:1;"/><line x1="198.754" y1="164.276" x2="198.754" y2="179.276" style="stroke:#000;stroke-width:1;"/><polygon points="194.754,169.276,198.754,179.276,202.754,169.276,198.754,173.276" fill="#000" style="stroke:#000;stroke-width:1;stroke-linejoin:miter;stroke-miterlimit:10;"/><line x1="1265.727" y1="191.276" x2="1432.573" y2="191.276" style="stroke:#000;stroke-width:1;"/><line x1="1432.573" y1="191.276" x2="1432.573" y2="232.679" style="stroke:#000;stroke-width:1;"/><polygon points="1428.573,222.679,1432.573,232.679,1436.573,222.679,1432.573,226.679" fill="#000" style="stroke:#000;stroke-width:1;stroke-linejoin:miter;stroke-miterlimit:10;"/><line x1="1432.573" y1="266.647" x2="1432.573" y2="290.05" style="stroke:#000;stroke-width:1;"/><polygon points="1428.573,280.05,1432.573,290.05,1436.573,280.05,1432.573,284.05" fill="#000" style="stroke:#000;stroke-width:1;stroke-linejoin:miter;stroke-miterlimit:10;"/><line x1="198.754" y1="290.05" x2="1432.573" y2="290.05" style="stroke:#000;stroke-width:1;"/><line x1="1820.956" y1="378.019" x2="1820.956" y2="398.019" style="stroke:#000;stroke-width:1;"/><polygon points="1816.956,388.019,1820.956,398.019,1824.956,388.019,1820.956,392.019" fill="#000" style="stroke:#000;stroke-width:1;stroke-linejoin:miter;stroke-miterlimit:10;"/><line x1="1839.067" y1="322.05" x2="1820.956" y2="322.05" style="stroke:#000;stroke-width:1;"/><line x1="1820.956" y1="322.05" x2="1820.956" y2="344.05" style="stroke:#000;stroke-width:1;"/><polygon points="1816.956,334.05,1820.956,344.05,1824.956,334.05,1820.956,338.05" fill="#000" style="stroke:#000;stroke-width:1;stroke-linejoin:miter;stroke-miterlimit:10;"/><line x1="2186.541" y1="322.05" x2="2204.652" y2="322.05" style="stroke:#000;stroke-width:1;"/><line x1="2204.652" y1="322.05" x2="2204.652" y2="344.05" style="stroke:#000;stroke-width:1;"/><polygon points="2200.652,334.05,2204.652,344.05,2208.652,334.05,2204.652,338.05" fill="#000" style="stroke:#000;stroke-width:1;stroke-linejoin:miter;stroke-miterlimit:10;"/><line x1="2204.652" y1="378.019" x2="2204.652" y2="425.019" style="stroke:#000;stroke-width:1;"/><line x1="2204.652" y1="425.019" x2="772.985" y2="425.019" style="stroke:#000;stroke-width:1;"/><line x1="772.985" y1="425.019" x2="772.985" y2="440.019" style="stroke:#000;stroke-width:1;"/><polygon points="768.985,430.019,772.985,440.019,776.985,430.019,772.985,434.019" fill="#000" style="stroke:#000;stroke-width:1;stroke-linejoin:miter;stroke-miterlimit:10;"/><line x1="2012.804" y1="635.894" x2="2012.804" y2="655.894" style="stroke:#000;stroke-width:1;"/><polygon points="2008.804,645.894,2012.804,655.894,2016.804,645.894,2012.804,649.894" fill="#000" style="stroke:#000;stroke-width:1;stroke-linejoin:miter;stroke-miterlimit:10;"/><line x1="772.985" y1="290.05" x2="772.985" y2="295.05" style="stroke:#000;stroke-width:1;"/><line x1="772.985" y1="295.05" x2="2012.804" y2="295.05" style="stroke:#000;stroke-width:1;"/><line x1="2012.804" y1="295.05" x2="2012.804" y2="310.05" style="stroke:#000;stroke-width:1;"/><polygon points="2008.804,300.05,2012.804,310.05,2016.804,300.05,2012.804,304.05" fill="#000" style="stroke:#000;stroke-width:1;stroke-linejoin:miter;stroke-miterlimit:10;"/><line x1="772.985" y1="473.987" x2="772.985" y2="478.987" style="stroke:#000;stroke-width:1;"/><line x1="772.985" y1="478.987" x2="2012.804" y2="478.987" style="stroke:#000;stroke-width:1;"/><line x1="2012.804" y1="478.987" x2="2012.804" y2="493.987" style="stroke:#000;stroke-width:1;"/><polygon points="2008.804,483.987,2012.804,493.987,2016.804,483.987,2012.804,487.987" fill="#000" style="stroke:#000;stroke-width:1;stroke-linejoin:miter;stroke-miterlimit:10;"/><line x1="2012.804" y1="527.956" x2="2012.804" y2="532.956" style="stroke:#000;stroke-width:1;"/><line x1="2012.804" y1="532.956" x2="2389.794" y2="532.956" style="stroke:#000;stroke-width:1;"/><line x1="2389.794" y1="532.956" x2="2389.794" y2="547.956" style="stroke:#000;stroke-width:1;"/><polygon points="2385.794,537.956,2389.794,547.956,2393.794,537.956,2389.794,541.956" fill="#000" style="stroke:#000;stroke-width:1;stroke-linejoin:miter;stroke-miterlimit:10;"/><line x1="2389.794" y1="581.925" x2="2389.794" y2="586.925" style="stroke:#000;stroke-width:1;"/><line x1="2389.794" y1="586.925" x2="2012.804" y2="586.925" style="stroke:#000;stroke-width:1;"/><line x1="2012.804" y1="586.925" x2="2012.804" y2="601.925" style="stroke:#000;stroke-width:1;"/><polygon points="2008.804,591.925,2012.804,601.925,2016.804,591.925,2012.804,595.925" fill="#000" style="stroke:#000;stroke-width:1;stroke-linejoin:miter;stroke-miterlimit:10;"/><text x="728.796" y="76.063" fill="#000" font-size="18" textLength="86.379" font-family="Verdana">Chủ quán</text><text x="1873.267" y="76.063" fill="#000" font-size="18" textLength="68.801" font-family="Verdana">CukCuk</text><text x="2333.181" y="76.063" fill="#000" font-size="18" textLength="111.226" font-family="Verdana">ShopeeFood</text><?plantuml-src RLDDQnDH5DtFhxZkKeXadom48oBO2D8k2k9YEftc3PbvCqtUI0FPI1SY8hQ8Y2ix114h9POKn1d4nGlz7--VUEwRj3DJ2Y7CVH_dt7FkUVUKy2EVaj0DfAC25VgqcPhYenoI9qpnLWgQcEBS9ONgmgFLoLKcIOtrcQGj4IU-_pYEznndriV-Tpf8TIPdpaIvO-Lq1wRuIf4-bVGyDVbSKgZ_De1wJh1FBRxw7g32ZKdfp7kmWMzVKcjRwBC804kvuH1rr-Uu9cMAdysU-ka8FnIcEA9TVKUNFSSF9pupRbb95dXDLLjXgh9KV5y409IMwnrrQ1Zeh8Q9bKXVefryZayrDda6wvJGMK32vFyK2UWVLjGxUjbahXPg6W-l5sc4XGz1ZR6DpSmZ2VHpMPUKBn8w16L2h_GfzlKogjJTjLa9jRNbQsFSV9Rb_c2NBne6b7pKMXsRubDmIo-RRa4VeZNLWISBHNszBATndvuDCJISvX90SY_OHsxis6Os20CMl3fno_3bsHJgqocwvg7FcoRiyZX6Wdso0UsmPJV90MlPYSxYQn_lHg8NVU6xoS1tGmnmUwp_HFG8nKi6lxITn3M6DW9WYWN9OJf5EdeWcQWuMTlor5wnp9jNlrAEzDGc4bxnMoZ5LjhhRuPT-nRHwdXr1DRmTdHlZEgoz_m-uS0NYl27ZCKc_ysPG6-lq_KBgN5FsD86MbK0SGVoxDlqCBYaZ9QoGU41psbaWtp0RxZUo1EmlP7rtIQ0ukWBygoD7GfDyJdeEMpNVm00?></g></svg>