<svg xmlns="http://www.w3.org/2000/svg" xmlns:xlink="http://www.w3.org/1999/xlink" version="1.1" data-diagram-type="STATE" style="width:1359px;height:828px;background:#FFFFFF;" width="1359px" height="828px" viewBox="0 0 1359 828" zoomAndPan="magnify" preserveAspectRatio="none" contentStyleType="text/css"><?plantuml 1.2026.7beta11?><defs/><g font-family="sans-serif" lengthAdjust="spacing"><g class="title" data-source-line="8"><text x="375.647" y="35.421" fill="#000" font-size="22" textLength="605.956" font-weight="700" font-family="Helvetica">Vòng đời đơn hàng ShopeeFood tại MISA CukCuk</text></g><g class="entity" data-qualified-name="ChuaXN" id="ent0001" data-source-line="10"><rect x="681.07" y="154.609" width="325.475" height="65.398" fill="#FFF3CD" style="stroke:#000;stroke-width:1;" rx="12.5" ry="12.5"/><line x1="681.07" y1="179.742" x2="1006.545" y2="179.742" style="stroke:#000;stroke-width:1;"/><text x="795.168" y="171.676" fill="#000" font-size="13" textLength="97.278" font-family="Helvetica">Chưa xác nhận</text><text x="686.07" y="196.809" fill="#000" font-size="13" textLength="226.599" font-family="Helvetica">Đơn mới tiếp nhận từ ShopeeFood.</text><text x="686.07" y="211.942" fill="#000" font-size="13" textLength="305.475" font-family="Helvetica">Hệ thống thông báo liên tục đến khi được xử lý</text></g><g class="entity" data-qualified-name="DangXL" id="ent0002" data-source-line="14"><rect x="357.24" y="312.009" width="351.132" height="65.398" fill="#D6E4FF" style="stroke:#000;stroke-width:1;" rx="12.5" ry="12.5"/><line x1="357.24" y1="337.142" x2="708.372" y2="337.142" style="stroke:#000;stroke-width:1;"/><text x="497.789" y="329.076" fill="#000" font-size="13" textLength="70.034" font-family="Helvetica">Đang xử lý</text><text x="362.24" y="354.209" fill="#000" font-size="13" textLength="150.23" font-family="Helvetica">Đơn đã được xác nhận.</text><text x="362.24" y="369.342" fill="#000" font-size="13" textLength="331.132" font-family="Helvetica">Tem chế biến in tự động, bếp/bar bắt đầu chế biến</text></g><g class="entity" data-qualified-name="DaXL" id="ent0003" data-source-line="18"><rect x="270.92" y="471.979" width="313.763" height="50.266" fill="#E8DAEF" style="stroke:#000;stroke-width:1;" rx="12.5" ry="12.5"/><line x1="270.92" y1="497.112" x2="584.683" y2="497.112" style="stroke:#000;stroke-width:1;"/><text x="401.03" y="489.046" fill="#000" font-size="13" textLength="53.542" font-family="Helvetica">Đã xử lý</text><text x="275.92" y="514.179" fill="#000" font-size="13" textLength="293.763" font-family="Helvetica">Tài xế đã nhận hàng và đang giao đến khách</text></g><g class="entity" data-qualified-name="Done" id="ent0004" data-source-line="21"><rect x="248.61" y="601.809" width="358.394" height="65.398" fill="#D5F5E3" style="stroke:#000;stroke-width:1;" rx="12.5" ry="12.5"/><line x1="248.61" y1="626.942" x2="607.004" y2="626.942" style="stroke:#000;stroke-width:1;"/><text x="379.565" y="618.876" fill="#000" font-size="13" textLength="96.484" font-family="Helvetica">Đã hoàn thành</text><text x="253.61" y="644.009" fill="#000" font-size="13" textLength="138.246" font-family="Helvetica">Khách đã nhận hàng.</text><text x="253.61" y="659.142" fill="#000" font-size="13" textLength="338.394" font-family="Helvetica">Hệ thống ghi nhận doanh thu và phát hành hóa đơn</text></g><g class="entity" data-qualified-name="Huy" id="ent0005" data-source-line="25"><rect x="987.36" y="471.979" width="356.889" height="50.266" fill="#FADBD8" style="stroke:#000;stroke-width:1;" rx="12.5" ry="12.5"/><line x1="987.36" y1="497.112" x2="1344.249" y2="497.112" style="stroke:#000;stroke-width:1;"/><text x="1152.951" y="489.046" fill="#000" font-size="13" textLength="25.708" font-family="Helvetica">Hủy</text><text x="992.36" y="514.179" fill="#000" font-size="13" textLength="336.889" font-family="Helvetica">Đơn bị từ chối hoặc hủy bởi nhà hàng / ShopeeFood</text></g><g class="start_entity" data-qualified-name=".start." id="ent0006" data-source-line="28"><ellipse cx="843.8" cy="67.609" rx="10" ry="10" fill="#FFF" style="stroke:#000;stroke-width:1;"/></g><g class="end_entity" data-qualified-name=".end." id="ent0014" data-source-line="35"><ellipse cx="922.8" cy="771.039" rx="11" ry="11" fill="none" style="stroke:#000;stroke-width:1;"/><ellipse cx="922.8" cy="771.039" rx="6" ry="6" fill="#FFF" style="stroke:#000;stroke-width:1;"/></g><g class="entity" data-qualified-name="GMN17" id="ent0018" data-source-line="39"><path d="M619.65,469.409 L619.65,493.109 L585.13,497.109 L619.65,501.109 L619.65,524.808 A0,0 0 0 0 619.65,524.808 L951.958,524.808 A0,0 0 0 0 951.958,524.808 L951.958,479.409 L941.958,469.409 L619.65,469.409 A0,0 0 0 0 619.65,469.409" style="stroke:#000;stroke-width:1;" fill="#FFF"/><path d="M941.958,469.409 L941.958,479.409 L951.958,479.409 L941.958,469.409" style="stroke:#000;stroke-width:1;" fill="#FFF"/><text x="625.65" y="486.476" fill="#000" font-size="13" textLength="165.477" font-weight="700" font-family="Helvetica">Khóa thao tác hủy đơn</text><text x="625.65" y="501.609" fill="#000" font-size="13" textLength="311.308" font-family="Helvetica">ShopeeFood không cho phép nhà hàng hủy đơn</text><text x="625.65" y="516.742" fill="#000" font-size="13" textLength="181.118" font-family="Helvetica">sau khi tài xế đã nhận hàng</text></g><g class="entity" data-qualified-name="GMN20" id="ent0021" data-source-line="45"><path d="M222.11,728.209 L222.11,813.873 A0,0 0 0 0 222.11,813.873 L633.51,813.873 A0,0 0 0 0 633.51,813.873 L633.51,738.209 L623.51,728.209 L431.8,728.209 L427.8,667.389 L423.8,728.209 L222.11,728.209 A0,0 0 0 0 222.11,728.209" style="stroke:#000;stroke-width:1;" fill="#FFF"/><path d="M623.51,728.209 L623.51,738.209 L633.51,738.209 L623.51,728.209" style="stroke:#000;stroke-width:1;" fill="#FFF"/><text x="228.11" y="745.276" fill="#000" font-size="13" textLength="216.068" font-weight="700" font-family="Helvetica">Tự động ghi nhận hoàn thành</text><text x="228.11" y="760.409" fill="#000" font-size="13" textLength="390.4" font-family="Helvetica">Đơn chuyển trạng thái hoàn thành theo xác nhận giao hàng</text><text x="228.11" y="775.542" fill="#000" font-size="13" textLength="342.494" font-family="Helvetica">từ ShopeeFood; nhân viên không cần thao tác thêm.</text><text x="228.11" y="790.675" fill="#000" font-size="13" textLength="382.364" font-family="Helvetica">Trường hợp không nhận được thông báo, hệ thống tự động</text><text x="228.11" y="805.808" fill="#000" font-size="13" textLength="347.033" font-family="Helvetica">kiểm tra và cập nhật trạng thái định kỳ mỗi 2-5 phút.</text></g><!--link *start* to ChuaXN--><g class="link" data-entity-1="ent0006" data-entity-2="ent0001" id="lnk7" data-source-line="28" data-link-type="dependency"><path d="M843.8,77.849 C843.8,94.109 843.8,123.549 843.8,149.289" style="stroke:#000;stroke-width:1;" fill="none" id="*start*-to-ChuaXN"/><polygon points="843.8,154.289,847.8,145.289,843.8,149.289,839.8,145.289,843.8,154.289" fill="#000" style="stroke:#000;stroke-width:1;stroke-linejoin:miter;stroke-miterlimit:10;"/><text x="844.8" y="120.676" fill="#000" font-size="13" textLength="283.645" font-family="Helvetica">Khách đặt hàng trên ứng dụng ShopeeFood</text></g><!--link ChuaXN to DangXL--><g class="link" data-entity-1="ent0001" data-entity-2="ent0002" id="lnk8" data-source-line="29" data-link-type="dependency"><path d="M779.37,220.509 C725.99,247.179 654.983,282.654 601.633,309.314" style="stroke:#000;stroke-width:1;" fill="none" id="ChuaXN-to-DangXL"/><polygon points="597.16,311.549,606.999,311.104,601.633,309.314,603.423,303.948,597.16,311.549" fill="#000" style="stroke:#000;stroke-width:1;stroke-linejoin:miter;stroke-miterlimit:10;"/><text x="787.738" y="263.076" fill="#000" font-size="13" textLength="89.413" font-family="Helvetica">Xác nhận đơn</text><text x="716.8" y="278.209" fill="#000" font-size="13" textLength="231.29" font-family="Helvetica">(thủ công hoặc tự động sau X phút)</text></g><!--link ChuaXN to Huy--><g class="link" data-entity-1="ent0001" data-entity-2="ent0005" id="lnk9" data-source-line="30" data-link-type="dependency"><path d="M909.1,220.439 C925.17,229.289 942,239.399 956.8,250.009 C1040.76,310.189 1068.14,323.089 1127.8,407.409 C1141.84,427.239 1150.557,448.323 1156.877,466.993" style="stroke:#000;stroke-width:1;" fill="none" id="ChuaXN-to-Huy"/><polygon points="1158.48,471.729,1159.383,461.922,1156.877,466.993,1151.805,464.487,1158.48,471.729" fill="#000" style="stroke:#000;stroke-width:1;stroke-linejoin:miter;stroke-miterlimit:10;"/><text x="1179.671" y="341.776" fill="#000" font-size="13" textLength="75.842" font-family="Helvetica">Từ chối đơn</text><text x="1105.8" y="356.909" fill="#000" font-size="13" textLength="223.583" font-family="Helvetica">(hết món / quá tải / ngoài giờ bán)</text></g><!--link DangXL to Huy--><g class="link" data-entity-1="ent0002" data-entity-2="ent0005" id="lnk10" data-source-line="31" data-link-type="dependency"><path d="M606.3,377.859 C666.58,404.139 743.2,437.299 750.8,439.409 C751.57,439.619 869.996,455.794 982.016,471.064" style="stroke:#000;stroke-width:1;" fill="none" id="DangXL-to-Huy"/><polygon points="986.97,471.739,978.593,466.56,982.016,471.064,977.512,474.487,986.97,471.739" fill="#000" style="stroke:#000;stroke-width:1;stroke-linejoin:miter;stroke-miterlimit:10;"/><text x="751.8" y="420.476" fill="#000" font-size="13" textLength="371.052" font-family="Helvetica">Hủy đơn — chỉ thực hiện được trước khi tài xế nhận hàng</text><text x="803.711" y="435.609" fill="#000" font-size="13" textLength="267.23" font-family="Helvetica">(đơn đã chuyển bếp sẽ in phiếu báo hủy)</text></g><!--link DangXL to DaXL--><g class="link" data-entity-1="ent0002" data-entity-2="ent0003" id="lnk11" data-source-line="32" data-link-type="dependency"><path d="M510.54,377.609 C490.91,405.719 465.602,441.97 447.722,467.58" style="stroke:#000;stroke-width:1;" fill="none" id="DangXL-to-DaXL"/><polygon points="444.86,471.679,453.292,466.59,447.722,467.58,446.732,462.01,444.86,471.679" fill="#000" style="stroke:#000;stroke-width:1;stroke-linejoin:miter;stroke-miterlimit:10;"/><text x="521.335" y="420.476" fill="#000" font-size="13" textLength="112.988" font-family="Helvetica">Tài xế nhận hàng</text><text x="490.8" y="435.609" fill="#000" font-size="13" textLength="174.059" font-family="Helvetica">(đối chiếu mã đơn rút gọn)</text></g><!--link DangXL to Done--><g class="link" data-entity-1="ent0002" data-entity-2="ent0004" id="lnk12" data-source-line="33" data-link-type="dependency"><path d="M356.92,370.319 C241.77,390.449 106.29,423.179 70.8,469.409 C11,547.329 126.516,588.584 243.346,610.584" style="stroke:#000;stroke-width:1;" fill="none" id="DangXL-to-Done"/><polygon points="248.26,611.509,240.156,605.913,243.346,610.584,238.675,613.775,248.26,611.509" fill="#000" style="stroke:#000;stroke-width:1;stroke-linejoin:miter;stroke-miterlimit:10;"/><text x="71.8" y="501.676" fill="#000" font-size="13" textLength="181.441" font-family="Helvetica">Đơn khách tự nhận tại quán</text></g><!--link DaXL to Done--><g class="link" data-entity-1="ent0003" data-entity-2="ent0004" id="lnk13" data-source-line="34" data-link-type="dependency"><path d="M427.8,522.629 C427.8,544.729 427.8,572.359 427.8,596.509" style="stroke:#000;stroke-width:1;" fill="none" id="DaXL-to-Done"/><polygon points="427.8,601.509,431.8,592.509,427.8,596.509,423.8,592.509,427.8,601.509" fill="#000" style="stroke:#000;stroke-width:1;stroke-linejoin:miter;stroke-miterlimit:10;"/><text x="428.8" y="567.876" fill="#000" font-size="13" textLength="185.726" font-family="Helvetica">Tài xế giao hàng thành công</text></g><!--link Done to *end*--><g class="link" data-entity-1="ent0004" data-entity-2="ent0014" id="lnk15" data-source-line="35" data-link-type="dependency"><path d="M546.06,667.639 C673.89,702.389 860.855,753.197 907.485,765.877" style="stroke:#000;stroke-width:1;" fill="none" id="Done-to-*end*"/><polygon points="912.31,767.189,904.675,760.968,907.485,765.877,902.576,768.688,912.31,767.189" fill="#000" style="stroke:#000;stroke-width:1;stroke-linejoin:miter;stroke-miterlimit:10;"/></g><!--link Huy to *end*--><g class="link" data-entity-1="ent0005" data-entity-2="ent0014" id="lnk16" data-source-line="36" data-link-type="dependency"><path d="M1143.81,522.719 C1091.47,581.289 964.852,722.991 933.182,758.431" style="stroke:#000;stroke-width:1;" fill="none" id="Huy-to-*end*"/><polygon points="929.85,762.159,938.83,758.114,933.182,758.431,932.864,752.783,929.85,762.159" fill="#000" style="stroke:#000;stroke-width:1;stroke-linejoin:miter;stroke-miterlimit:10;"/></g><?plantuml-src PLNVQnD147w_lsAqBoesHMj5L0gnQQZuuwL10kh3tkNCBidjnSjUjOeW-20YWWL1f1GRYvHMYjKAGWxfmnN_Z_ClSMRtVcnQ2BdTlPsPRxxvPkwKudxWmw3FX7I6FI47B681TFn7BEwhPYZLNORlb_p-Yg-4nwmxGyMK3yyT0BgsB9xvS64ETtMb8k76og-EPvqNbc4zYi8dzaibLD-7U-bFsOMZjIpP4FZuEvB0qqqyMkRXm4TlOGTKDXu9k7DpkGuBSGz_ZcDWd5xWV_SPF4r77aYUZVVaQM13ME0nQz-5gMQpERlGSFBjLJXwJ-w3B5aNe4GsFXpaLXWX-MP5h5KsIrdo6XJFaZN4f7Zw2nzkEWgXBz9TRVZL8_ZZGmazhbFOpv8j3vvcoHxqqpybrgFt36sBOmsqWIVjsp3LkBnugTbqycq1z6WjtRByLKdMgfijFm0F3m_15Hg3q9X-Q4O_oUvvS2dF6PT5jFgkDDRjUCB8WeWHZo4aV8jN6lL5mcTYffi2Rw6vHfXJQAgsacxYAINQ5IoiY47mV38C3z606DsKt8GAfOzKp3Nd5cSTlRaAjxJXoJYrui94URh8Vtwh4pB9yKMi4GtGZTAM7FyFc15QYGUTRAzg34lnAigcthZHkEBGkYY5coLlZKWyYYKGVJR-xG4dIthxcI9Z9CF2ZAKbnxb_xY5CJyz3gQaoA_IXSXCLaPooP0VN7HJLH0SKSYGlPUdRbI1CFW_a6M9Y6pojqXoYhGOOiXZQHCTOdRMTcbnRLeA5HvA9WY0za9ZLupWTKJTk2Tp8RaX2w0fiNMe9URQGPULHCvktzR-N7xJpDxfUFv0yj7mjAuMhY1RhdkuZLOhChZi2Ciwq8ZmUhsR9Asaq3iDi_8VqF-2awjYqgQxG1B8JAZuHG1FWvLu2quGOCqBMe9ibxoOppPLeX6AKRaWlPmjDBw9EcWwoZ2eGkbroAHYXwYeQdPC5gaXBibWxCaJjHgBB5OIFT5OuXg-xyxUqmXL7VueamgiQN9znv_6IDLfxPg9vF2HLx0ni5Lk6Q4JIcIpCYQvqVDa1WfM3SqEbma2ZmomCkfOjHwjXxN6GmpICbaLM4H9fw1c9YVluy4DxG5fiefzZm_qQvVX5meeUu0K1E1IbHHewtWrgQDpIejmmT6mDYljLt-NQhRuCv-cczSsm4aP_FHJzgm2JONeoOToz_2kaZcL8DcynkLwM7D17wwE0YzDpfdbh9TN_0G00?></g></svg>